<?xml version="1.0" encoding="UTF-8" standalone="no"?>
<!DOCTYPE svg PUBLIC "-//W3C//DTD SVG 1.1//EN"
 "http://www.w3.org/Graphics/SVG/1.1/DTD/svg11.dtd">
<!-- Generated by graphviz version 2.39.20150126.0545 (20150126.0545)
 -->
<!-- Title: Graph Legend Pages: 1 -->
<svg width="507pt" height="159pt"
 viewBox="0.00 0.00 506.50 159.00" xmlns="http://www.w3.org/2000/svg" xmlns:xlink="http://www.w3.org/1999/xlink">
<g id="graph0" class="graph" transform="scale(1 1) rotate(0) translate(4 155)">
<title>Graph Legend</title>
<!-- Node9 -->
<g id="node1" class="node"><title>Node9</title>
<polygon fill="#bfbfbf" stroke="black" points="290.5,-19 237.5,-19 237.5,-0 290.5,-0 290.5,-19"/>
<text text-anchor="middle" x="264" y="-7" font-family="Helvetica,sans-Serif" font-size="10.00">Inherited</text>
</g>
<!-- Node10 -->
<g id="node2" class="node"><title>Node10</title>
<g id="a_node2"><a xlink:href="$classPublicBase.html" xlink:title="PublicBase">
<polygon fill="none" stroke="black" points="66,-85 0,-85 0,-66 66,-66 66,-85"/>
<text text-anchor="middle" x="33" y="-73" font-family="Helvetica,sans-Serif" font-size="10.00">PublicBase</text>
</a>
</g>
</g>
<!-- Node10&#45;&gt;Node9 -->
<g id="edge1" class="edge"><title>Node10&#45;&gt;Node9</title>
<path fill="none" stroke="midnightblue" d="M75.7545,-63.2844C123.073,-49.7647 197.866,-28.3955 237.427,-17.0922"/>
<polygon fill="midnightblue" stroke="midnightblue" points="74.7504,-59.9312 66.0967,-66.0438 76.6735,-66.6619 74.7504,-59.9312"/>
</g>
<!-- Node11 -->
<g id="node3" class="node"><title>Node11</title>
<g id="a_node3"><a xlink:href="$classTruncated.html" xlink:title="Truncated">
<polygon fill="none" stroke="red" points="62.5,-151 3.5,-151 3.5,-132 62.5,-132 62.5,-151"/>
<text text-anchor="middle" x="33" y="-139" font-family="Helvetica,sans-Serif" font-size="10.00">Truncated</text>
</a>
</g>
</g>
<!-- Node11&#45;&gt;Node10 -->
<g id="edge2" class="edge"><title>Node11&#45;&gt;Node10</title>
<path fill="none" stroke="midnightblue" d="M33,-121.732C33,-109.697 33,-94.847 33,-85.2785"/>
<polygon fill="midnightblue" stroke="midnightblue" points="29.5001,-121.761 33,-131.761 36.5001,-121.762 29.5001,-121.761"/>
</g>
<!-- Node13 -->
<g id="node4" class="node"><title>Node13</title>
<g id="a_node4"><a xlink:href="$classProtectedBase.html" xlink:title="ProtectedBase">
<polygon fill="none" stroke="black" points="165.5,-85 84.5,-85 84.5,-66 165.5,-66 165.5,-85"/>
<text text-anchor="middle" x="125" y="-73" font-family="Helvetica,sans-Serif" font-size="10.00">ProtectedBase</text>
</a>
</g>
</g>
<!-- Node13&#45;&gt;Node9 -->
<g id="edge3" class="edge"><title>Node13&#45;&gt;Node9</title>
<path fill="none" stroke="darkgreen" d="M154.507,-61.4894C181.358,-48.7399 220.282,-30.2581 243.764,-19.1085"/>
<polygon fill="darkgreen" stroke="darkgreen" points="152.744,-58.452 145.212,-65.903 155.746,-64.7754 152.744,-58.452"/>
</g>
<!-- Node14 -->
<g id="node5" class="node"><title>Node14</title>
<g id="a_node5"><a xlink:href="$classPrivateBase.html" xlink:title="PrivateBase">
<polygon fill="none" stroke="black" points="252,-85 184,-85 184,-66 252,-66 252,-85"/>
<text text-anchor="middle" x="218" y="-73" font-family="Helvetica,sans-Serif" font-size="10.00">PrivateBase</text>
</a>
</g>
</g>
<!-- Node14&#45;&gt;Node9 -->
<g id="edge4" class="edge"><title>Node14&#45;&gt;Node9</title>
<path fill="none" stroke="#8b1a1a" d="M230.51,-57.5511C239.1,-45.2256 250.175,-29.3352 257.185,-19.2785"/>
<polygon fill="#8b1a1a" stroke="#8b1a1a" points="227.634,-55.5562 224.787,-65.7615 233.377,-59.5588 227.634,-55.5562"/>
</g>
<!-- Node15 -->
<g id="node6" class="node"><title>Node15</title>
<polygon fill="none" stroke="#bfbfbf" points="352,-85 270,-85 270,-66 352,-66 352,-85"/>
<text text-anchor="middle" x="311" y="-73" font-family="Helvetica,sans-Serif" font-size="10.00">Undocumented</text>
</g>
<!-- Node15&#45;&gt;Node9 -->
<g id="edge5" class="edge"><title>Node15&#45;&gt;Node9</title>
<path fill="none" stroke="midnightblue" d="M298.218,-57.5511C289.441,-45.2256 278.125,-29.3352 270.963,-19.2785"/>
<polygon fill="midnightblue" stroke="midnightblue" points="295.413,-59.646 304.065,-65.7615 301.115,-55.5855 295.413,-59.646"/>
</g>
<!-- Node16 -->
<g id="node7" class="node"><title>Node16</title>
<g id="a_node7"><a xlink:href="$classTempl.html" xlink:title="Templ&lt; int &gt;">
<polygon fill="none" stroke="black" points="441.5,-85 370.5,-85 370.5,-66 441.5,-66 441.5,-85"/>
<text text-anchor="middle" x="406" y="-73" font-family="Helvetica,sans-Serif" font-size="10.00">Templ&lt; int &gt;</text>
</a>
</g>
</g>
<!-- Node16&#45;&gt;Node9 -->
<g id="edge6" class="edge"><title>Node16&#45;&gt;Node9</title>
<path fill="none" stroke="midnightblue" d="M376.216,-61.6568C348.774,-48.9022 308.767,-30.3071 284.673,-19.1085"/>
<polygon fill="midnightblue" stroke="midnightblue" points="374.808,-64.862 385.352,-65.903 377.759,-58.5142 374.808,-64.862"/>
</g>
<!-- Node17 -->
<g id="node8" class="node"><title>Node17</title>
<g id="a_node8"><a xlink:href="$classTempl.html" xlink:title="Templ&lt; T &gt;">
<polygon fill="none" stroke="black" points="439,-151 373,-151 373,-132 439,-132 439,-151"/>
<text text-anchor="middle" x="406" y="-139" font-family="Helvetica,sans-Serif" font-size="10.00">Templ&lt; T &gt;</text>
</a>
</g>
</g>
<!-- Node17&#45;&gt;Node16 -->
<g id="edge7" class="edge"><title>Node17&#45;&gt;Node16</title>
<path fill="none" stroke="orange" stroke-dasharray="5,2" d="M406,-121.732C406,-109.697 406,-94.847 406,-85.2785"/>
<polygon fill="orange" stroke="orange" points="402.5,-121.761 406,-131.761 409.5,-121.762 402.5,-121.761"/>
<text text-anchor="middle" x="420.5" y="-106" font-family="Helvetica,sans-Serif" font-size="10.00">&lt; int &gt;</text>
</g>
<!-- Node18 -->
<g id="node9" class="node"><title>Node18</title>
<g id="a_node9"><a xlink:href="$classUsed.html" xlink:title="Used">
<polygon fill="none" stroke="black" points="498.5,-85 459.5,-85 459.5,-66 498.5,-66 498.5,-85"/>
<text text-anchor="middle" x="479" y="-73" font-family="Helvetica,sans-Serif" font-size="10.00">Used</text>
</a>
</g>
</g>
<!-- Node18&#45;&gt;Node9 -->
<g id="edge8" class="edge"><title>Node18&#45;&gt;Node9</title>
<path fill="none" stroke="#9a32cd" stroke-dasharray="5,2" d="M449.693,-65.9519C386.919,-46.1904 324.919,-27.5958 290.545,-17.3664"/>
<polygon fill="#9a32cd" stroke="#9a32cd" points="448.773,-69.3317 459.363,-69.0035 450.88,-62.6563 448.773,-69.3317"/>
<text text-anchor="middle" x="419" y="-40" font-family="Helvetica,sans-Serif" font-size="10.00">m_usedClass</text>
</g>
</g>
</svg>
